<mxfile host="app.diagrams.net" modified="2023-06-08T06:57:10.413Z" agent="Mozilla/5.0 (Windows NT 10.0; Win64; x64) AppleWebKit/537.36 (KHTML, like Gecko) Chrome/114.0.0.0 Safari/537.36" etag="8OWhCJoDjedf60FpPhuV" version="21.2.3" type="device">
  <diagram name="Page-1" id="yQJUHRYvFYzbg4lUN8dZ">
    <mxGraphModel dx="4037" dy="1853" grid="1" gridSize="10" guides="1" tooltips="1" connect="1" arrows="1" fold="1" page="1" pageScale="1" pageWidth="850" pageHeight="1100" math="0" shadow="0">
      <root>
        <mxCell id="0" />
        <mxCell id="1" parent="0" />
        <mxCell id="LxgnsTLY_BnMaZnDWCfZ-41" style="edgeStyle=orthogonalEdgeStyle;rounded=0;orthogonalLoop=1;jettySize=auto;html=1;entryX=0.5;entryY=1;entryDx=0;entryDy=0;strokeColor=#736CA8;fontColor=#1A1A1A;" edge="1" parent="1" source="LxgnsTLY_BnMaZnDWCfZ-30" target="LxgnsTLY_BnMaZnDWCfZ-31">
          <mxGeometry relative="1" as="geometry">
            <Array as="points">
              <mxPoint x="425" y="640" />
              <mxPoint x="90" y="640" />
            </Array>
          </mxGeometry>
        </mxCell>
        <mxCell id="LxgnsTLY_BnMaZnDWCfZ-42" value="Info_pemesanan&lt;br&gt;Daftar_menu&lt;br&gt;Info_pembayaran" style="edgeLabel;html=1;align=center;verticalAlign=middle;resizable=0;points=[];fontColor=#1A1A1A;" vertex="1" connectable="0" parent="LxgnsTLY_BnMaZnDWCfZ-41">
          <mxGeometry x="0.0605" y="-2" relative="1" as="geometry">
            <mxPoint x="-15" as="offset" />
          </mxGeometry>
        </mxCell>
        <mxCell id="LxgnsTLY_BnMaZnDWCfZ-43" style="edgeStyle=orthogonalEdgeStyle;rounded=0;orthogonalLoop=1;jettySize=auto;html=1;entryX=0.554;entryY=1.051;entryDx=0;entryDy=0;entryPerimeter=0;strokeColor=#736CA8;fontColor=#1A1A1A;" edge="1" parent="1" source="LxgnsTLY_BnMaZnDWCfZ-30" target="LxgnsTLY_BnMaZnDWCfZ-33">
          <mxGeometry relative="1" as="geometry">
            <Array as="points">
              <mxPoint x="425" y="640" />
              <mxPoint x="765" y="640" />
            </Array>
          </mxGeometry>
        </mxCell>
        <mxCell id="LxgnsTLY_BnMaZnDWCfZ-44" value="Data_pemberlian&lt;br&gt;Info_pembayaran" style="edgeLabel;html=1;align=center;verticalAlign=middle;resizable=0;points=[];fontColor=#1A1A1A;" vertex="1" connectable="0" parent="LxgnsTLY_BnMaZnDWCfZ-43">
          <mxGeometry x="-0.13" y="1" relative="1" as="geometry">
            <mxPoint x="24" as="offset" />
          </mxGeometry>
        </mxCell>
        <mxCell id="LxgnsTLY_BnMaZnDWCfZ-45" style="edgeStyle=orthogonalEdgeStyle;rounded=0;orthogonalLoop=1;jettySize=auto;html=1;entryX=0.5;entryY=1;entryDx=0;entryDy=0;strokeColor=#736CA8;fontColor=#1A1A1A;" edge="1" parent="1" source="LxgnsTLY_BnMaZnDWCfZ-30" target="LxgnsTLY_BnMaZnDWCfZ-32">
          <mxGeometry relative="1" as="geometry" />
        </mxCell>
        <mxCell id="LxgnsTLY_BnMaZnDWCfZ-46" value="Lap.pengeluaran &amp;amp; pemasukan barang" style="edgeLabel;html=1;align=center;verticalAlign=middle;resizable=0;points=[];fontColor=#1A1A1A;" vertex="1" connectable="0" parent="LxgnsTLY_BnMaZnDWCfZ-45">
          <mxGeometry x="0.3387" y="2" relative="1" as="geometry">
            <mxPoint as="offset" />
          </mxGeometry>
        </mxCell>
        <mxCell id="LxgnsTLY_BnMaZnDWCfZ-30" value="&lt;font color=&quot;#ffffff&quot;&gt;Sistem penjualan makanan &amp;amp; minuman pada restaurant&lt;/font&gt;" style="shape=ellipse;html=1;dashed=0;whiteSpace=wrap;aspect=fixed;perimeter=ellipsePerimeter;strokeColor=#D0CEE2;fontColor=#1A1A1A;fillColor=#5D7F99;" vertex="1" parent="1">
          <mxGeometry x="360" y="485" width="130" height="130" as="geometry" />
        </mxCell>
        <mxCell id="LxgnsTLY_BnMaZnDWCfZ-34" style="edgeStyle=orthogonalEdgeStyle;rounded=0;orthogonalLoop=1;jettySize=auto;html=1;strokeColor=#736CA8;fontColor=#1A1A1A;" edge="1" parent="1" source="LxgnsTLY_BnMaZnDWCfZ-31" target="LxgnsTLY_BnMaZnDWCfZ-30">
          <mxGeometry relative="1" as="geometry" />
        </mxCell>
        <mxCell id="LxgnsTLY_BnMaZnDWCfZ-38" value="Data_paket&lt;br style=&quot;border-color: var(--border-color);&quot;&gt;Order_menu&lt;br style=&quot;border-color: var(--border-color);&quot;&gt;Data_Pelanggan&lt;br style=&quot;border-color: var(--border-color);&quot;&gt;Data_pembayaran" style="edgeLabel;html=1;align=center;verticalAlign=middle;resizable=0;points=[];fontColor=#1A1A1A;" vertex="1" connectable="0" parent="LxgnsTLY_BnMaZnDWCfZ-34">
          <mxGeometry x="-0.3273" relative="1" as="geometry">
            <mxPoint as="offset" />
          </mxGeometry>
        </mxCell>
        <mxCell id="LxgnsTLY_BnMaZnDWCfZ-31" value="Pelanggan" style="html=1;dashed=0;whiteSpace=wrap;strokeColor=#D0CEE2;fontColor=#ffffff;fillColor=#5D7F99;" vertex="1" parent="1">
          <mxGeometry x="40" y="525" width="100" height="50" as="geometry" />
        </mxCell>
        <mxCell id="LxgnsTLY_BnMaZnDWCfZ-32" value="General Manager" style="html=1;dashed=0;whiteSpace=wrap;strokeColor=#D0CEE2;fontColor=#FFFFFF;fillColor=#5D7F99;" vertex="1" parent="1">
          <mxGeometry x="363" y="230" width="125" height="50" as="geometry" />
        </mxCell>
        <mxCell id="LxgnsTLY_BnMaZnDWCfZ-39" style="edgeStyle=orthogonalEdgeStyle;rounded=0;orthogonalLoop=1;jettySize=auto;html=1;strokeColor=#736CA8;fontColor=#1A1A1A;" edge="1" parent="1" source="LxgnsTLY_BnMaZnDWCfZ-33" target="LxgnsTLY_BnMaZnDWCfZ-30">
          <mxGeometry relative="1" as="geometry" />
        </mxCell>
        <mxCell id="LxgnsTLY_BnMaZnDWCfZ-40" value="Data_penagiihan" style="edgeLabel;html=1;align=center;verticalAlign=middle;resizable=0;points=[];fontColor=#1A1A1A;" vertex="1" connectable="0" parent="LxgnsTLY_BnMaZnDWCfZ-39">
          <mxGeometry x="0.2104" y="3" relative="1" as="geometry">
            <mxPoint x="33" y="-3" as="offset" />
          </mxGeometry>
        </mxCell>
        <mxCell id="LxgnsTLY_BnMaZnDWCfZ-33" value="Supllier" style="html=1;dashed=0;whiteSpace=wrap;strokeColor=#D0CEE2;fontColor=#FFFFFF;fillColor=#5D7F99;" vertex="1" parent="1">
          <mxGeometry x="710" y="525" width="100" height="50" as="geometry" />
        </mxCell>
        <mxCell id="LxgnsTLY_BnMaZnDWCfZ-52" style="edgeStyle=orthogonalEdgeStyle;rounded=0;orthogonalLoop=1;jettySize=auto;html=1;entryX=1;entryY=0.5;entryDx=0;entryDy=0;strokeColor=#736CA8;fontColor=#1A1A1A;" edge="1" parent="1" source="LxgnsTLY_BnMaZnDWCfZ-48" target="LxgnsTLY_BnMaZnDWCfZ-51">
          <mxGeometry relative="1" as="geometry" />
        </mxCell>
        <mxCell id="LxgnsTLY_BnMaZnDWCfZ-53" value="Info_pemesanan&lt;br&gt;Info_pembayaran&lt;br&gt;Daftar_menu" style="edgeLabel;html=1;align=center;verticalAlign=middle;resizable=0;points=[];fontColor=#1A1A1A;" vertex="1" connectable="0" parent="LxgnsTLY_BnMaZnDWCfZ-52">
          <mxGeometry x="0.1467" y="1" relative="1" as="geometry">
            <mxPoint as="offset" />
          </mxGeometry>
        </mxCell>
        <mxCell id="LxgnsTLY_BnMaZnDWCfZ-59" style="edgeStyle=orthogonalEdgeStyle;rounded=0;orthogonalLoop=1;jettySize=auto;html=1;entryX=0.5;entryY=0;entryDx=0;entryDy=0;strokeColor=#736CA8;fontColor=#1A1A1A;" edge="1" parent="1" source="LxgnsTLY_BnMaZnDWCfZ-48" target="LxgnsTLY_BnMaZnDWCfZ-57">
          <mxGeometry relative="1" as="geometry">
            <Array as="points">
              <mxPoint x="140" y="960" />
              <mxPoint x="385" y="960" />
            </Array>
          </mxGeometry>
        </mxCell>
        <mxCell id="LxgnsTLY_BnMaZnDWCfZ-62" value="Data_paket" style="edgeLabel;html=1;align=center;verticalAlign=middle;resizable=0;points=[];fontColor=#1A1A1A;" vertex="1" connectable="0" parent="LxgnsTLY_BnMaZnDWCfZ-59">
          <mxGeometry x="0.5322" y="-1" relative="1" as="geometry">
            <mxPoint x="-150" y="-1" as="offset" />
          </mxGeometry>
        </mxCell>
        <mxCell id="LxgnsTLY_BnMaZnDWCfZ-65" style="edgeStyle=orthogonalEdgeStyle;rounded=0;orthogonalLoop=1;jettySize=auto;html=1;strokeColor=#736CA8;fontColor=#1A1A1A;exitX=0.974;exitY=0.259;exitDx=0;exitDy=0;exitPerimeter=0;" edge="1" parent="1" source="LxgnsTLY_BnMaZnDWCfZ-48" target="LxgnsTLY_BnMaZnDWCfZ-58">
          <mxGeometry relative="1" as="geometry">
            <Array as="points">
              <mxPoint x="180" y="1156" />
              <mxPoint x="180" y="1120" />
            </Array>
          </mxGeometry>
        </mxCell>
        <mxCell id="LxgnsTLY_BnMaZnDWCfZ-66" value="Daftar_menu" style="edgeLabel;html=1;align=center;verticalAlign=middle;resizable=0;points=[];fontColor=#1A1A1A;" vertex="1" connectable="0" parent="LxgnsTLY_BnMaZnDWCfZ-65">
          <mxGeometry x="0.2151" y="3" relative="1" as="geometry">
            <mxPoint as="offset" />
          </mxGeometry>
        </mxCell>
        <mxCell id="LxgnsTLY_BnMaZnDWCfZ-100" style="edgeStyle=orthogonalEdgeStyle;rounded=0;orthogonalLoop=1;jettySize=auto;html=1;entryX=1;entryY=0;entryDx=0;entryDy=0;strokeColor=#736CA8;fontColor=#1A1A1A;" edge="1" parent="1" source="LxgnsTLY_BnMaZnDWCfZ-48" target="LxgnsTLY_BnMaZnDWCfZ-97">
          <mxGeometry relative="1" as="geometry">
            <Array as="points">
              <mxPoint x="165" y="1270" />
              <mxPoint x="165" y="1270" />
            </Array>
          </mxGeometry>
        </mxCell>
        <mxCell id="LxgnsTLY_BnMaZnDWCfZ-101" value="Data_pesanan" style="edgeLabel;html=1;align=center;verticalAlign=middle;resizable=0;points=[];fontColor=#1A1A1A;" vertex="1" connectable="0" parent="LxgnsTLY_BnMaZnDWCfZ-100">
          <mxGeometry x="-0.3608" y="1" relative="1" as="geometry">
            <mxPoint as="offset" />
          </mxGeometry>
        </mxCell>
        <mxCell id="LxgnsTLY_BnMaZnDWCfZ-105" style="edgeStyle=orthogonalEdgeStyle;rounded=0;orthogonalLoop=1;jettySize=auto;html=1;entryX=0.955;entryY=-0.029;entryDx=0;entryDy=0;entryPerimeter=0;strokeColor=#736CA8;fontColor=#1A1A1A;" edge="1" parent="1" source="LxgnsTLY_BnMaZnDWCfZ-48" target="LxgnsTLY_BnMaZnDWCfZ-104">
          <mxGeometry relative="1" as="geometry">
            <Array as="points">
              <mxPoint x="80" y="1280" />
              <mxPoint x="-120" y="1280" />
            </Array>
          </mxGeometry>
        </mxCell>
        <mxCell id="LxgnsTLY_BnMaZnDWCfZ-106" value="Data_pembayaran" style="edgeLabel;html=1;align=center;verticalAlign=middle;resizable=0;points=[];fontColor=#1A1A1A;" vertex="1" connectable="0" parent="LxgnsTLY_BnMaZnDWCfZ-105">
          <mxGeometry x="-0.1602" y="3" relative="1" as="geometry">
            <mxPoint y="-3" as="offset" />
          </mxGeometry>
        </mxCell>
        <mxCell id="LxgnsTLY_BnMaZnDWCfZ-48" value="&lt;font color=&quot;#ffffff&quot;&gt;1&lt;br&gt;&lt;br&gt;Pengelolaan Data Penjualan&lt;br&gt;&lt;/font&gt;" style="shape=ellipse;html=1;dashed=0;whiteSpace=wrap;aspect=fixed;perimeter=ellipsePerimeter;strokeColor=#D0CEE2;fontColor=#1A1A1A;fillColor=#5D7F99;" vertex="1" parent="1">
          <mxGeometry x="40" y="1120" width="140" height="140" as="geometry" />
        </mxCell>
        <mxCell id="LxgnsTLY_BnMaZnDWCfZ-83" style="edgeStyle=orthogonalEdgeStyle;rounded=0;orthogonalLoop=1;jettySize=auto;html=1;strokeColor=#736CA8;fontColor=#1A1A1A;" edge="1" parent="1" source="LxgnsTLY_BnMaZnDWCfZ-49" target="LxgnsTLY_BnMaZnDWCfZ-80">
          <mxGeometry relative="1" as="geometry" />
        </mxCell>
        <mxCell id="LxgnsTLY_BnMaZnDWCfZ-86" value="Data_pembelian" style="edgeLabel;html=1;align=center;verticalAlign=middle;resizable=0;points=[];fontColor=#1A1A1A;" vertex="1" connectable="0" parent="LxgnsTLY_BnMaZnDWCfZ-83">
          <mxGeometry x="0.1798" y="2" relative="1" as="geometry">
            <mxPoint x="-15" y="2" as="offset" />
          </mxGeometry>
        </mxCell>
        <mxCell id="LxgnsTLY_BnMaZnDWCfZ-90" style="edgeStyle=orthogonalEdgeStyle;rounded=0;orthogonalLoop=1;jettySize=auto;html=1;strokeColor=#736CA8;fontColor=#1A1A1A;" edge="1" parent="1" source="LxgnsTLY_BnMaZnDWCfZ-49" target="LxgnsTLY_BnMaZnDWCfZ-89">
          <mxGeometry relative="1" as="geometry" />
        </mxCell>
        <mxCell id="LxgnsTLY_BnMaZnDWCfZ-91" value="Data_penagihan" style="edgeLabel;html=1;align=center;verticalAlign=middle;resizable=0;points=[];fontColor=#1A1A1A;" vertex="1" connectable="0" parent="LxgnsTLY_BnMaZnDWCfZ-90">
          <mxGeometry x="0.2037" y="2" relative="1" as="geometry">
            <mxPoint x="19" y="-2" as="offset" />
          </mxGeometry>
        </mxCell>
        <mxCell id="LxgnsTLY_BnMaZnDWCfZ-49" value="&lt;font color=&quot;#ffffff&quot;&gt;2&lt;br&gt;&lt;br&gt;Pengelolaan Data Pembelian&lt;br&gt;&lt;/font&gt;" style="shape=ellipse;html=1;dashed=0;whiteSpace=wrap;aspect=fixed;perimeter=ellipsePerimeter;strokeColor=#D0CEE2;fontColor=#1A1A1A;fillColor=#5D7F99;" vertex="1" parent="1">
          <mxGeometry x="358" y="1585" width="135" height="135" as="geometry" />
        </mxCell>
        <mxCell id="LxgnsTLY_BnMaZnDWCfZ-71" style="edgeStyle=orthogonalEdgeStyle;rounded=0;orthogonalLoop=1;jettySize=auto;html=1;entryX=0.5;entryY=1;entryDx=0;entryDy=0;strokeColor=#736CA8;fontColor=#1A1A1A;" edge="1" parent="1" source="LxgnsTLY_BnMaZnDWCfZ-50" target="LxgnsTLY_BnMaZnDWCfZ-70">
          <mxGeometry relative="1" as="geometry" />
        </mxCell>
        <mxCell id="LxgnsTLY_BnMaZnDWCfZ-72" value="Lap. Pengeluaran &amp;amp; Pemasukan Barang" style="edgeLabel;html=1;align=center;verticalAlign=middle;resizable=0;points=[];fontColor=#1A1A1A;" vertex="1" connectable="0" parent="LxgnsTLY_BnMaZnDWCfZ-71">
          <mxGeometry x="0.2202" relative="1" as="geometry">
            <mxPoint as="offset" />
          </mxGeometry>
        </mxCell>
        <mxCell id="LxgnsTLY_BnMaZnDWCfZ-74" style="edgeStyle=orthogonalEdgeStyle;rounded=0;orthogonalLoop=1;jettySize=auto;html=1;strokeColor=#736CA8;fontColor=#1A1A1A;" edge="1" parent="1" source="LxgnsTLY_BnMaZnDWCfZ-50" target="LxgnsTLY_BnMaZnDWCfZ-73">
          <mxGeometry relative="1" as="geometry" />
        </mxCell>
        <mxCell id="LxgnsTLY_BnMaZnDWCfZ-75" value="Data_pemakaian&lt;br&gt;Data_pembelian" style="edgeLabel;html=1;align=center;verticalAlign=middle;resizable=0;points=[];fontColor=#1A1A1A;" vertex="1" connectable="0" parent="LxgnsTLY_BnMaZnDWCfZ-74">
          <mxGeometry x="-0.2202" relative="1" as="geometry">
            <mxPoint as="offset" />
          </mxGeometry>
        </mxCell>
        <mxCell id="LxgnsTLY_BnMaZnDWCfZ-50" value="&lt;font style=&quot;font-size: 12px;&quot; color=&quot;#ffffff&quot;&gt;3&lt;br style=&quot;font-size: 12px;&quot;&gt;&lt;br style=&quot;font-size: 12px;&quot;&gt;Pengelolaan Data Persediaan Bahan Makanan &amp;amp; Minuman&lt;br style=&quot;font-size: 12px;&quot;&gt;&lt;/font&gt;" style="shape=ellipse;html=1;dashed=0;whiteSpace=wrap;aspect=fixed;perimeter=ellipsePerimeter;strokeColor=#D0CEE2;fontColor=#1A1A1A;fillColor=#5D7F99;fontSize=12;" vertex="1" parent="1">
          <mxGeometry x="600" y="1120" width="140" height="140" as="geometry" />
        </mxCell>
        <mxCell id="LxgnsTLY_BnMaZnDWCfZ-54" style="edgeStyle=orthogonalEdgeStyle;rounded=0;orthogonalLoop=1;jettySize=auto;html=1;strokeColor=#736CA8;fontColor=#1A1A1A;" edge="1" parent="1" source="LxgnsTLY_BnMaZnDWCfZ-51" target="LxgnsTLY_BnMaZnDWCfZ-48">
          <mxGeometry relative="1" as="geometry">
            <Array as="points">
              <mxPoint x="-170" y="1040" />
              <mxPoint x="110" y="1040" />
            </Array>
          </mxGeometry>
        </mxCell>
        <mxCell id="LxgnsTLY_BnMaZnDWCfZ-56" value="Data_paket&lt;br&gt;Order_menu&lt;br&gt;Data_pelanggan&lt;br&gt;Data_pembayaran" style="edgeLabel;html=1;align=center;verticalAlign=middle;resizable=0;points=[];fontColor=#1A1A1A;" vertex="1" connectable="0" parent="LxgnsTLY_BnMaZnDWCfZ-54">
          <mxGeometry x="-0.0663" y="1" relative="1" as="geometry">
            <mxPoint as="offset" />
          </mxGeometry>
        </mxCell>
        <mxCell id="LxgnsTLY_BnMaZnDWCfZ-51" value="Pelanggan" style="html=1;dashed=0;whiteSpace=wrap;strokeColor=#D0CEE2;fontColor=#ffffff;fillColor=#5D7F99;" vertex="1" parent="1">
          <mxGeometry x="-220" y="1165" width="100" height="50" as="geometry" />
        </mxCell>
        <mxCell id="LxgnsTLY_BnMaZnDWCfZ-63" style="edgeStyle=orthogonalEdgeStyle;rounded=0;orthogonalLoop=1;jettySize=auto;html=1;entryX=1;entryY=0;entryDx=0;entryDy=0;strokeColor=#736CA8;fontColor=#1A1A1A;" edge="1" parent="1" source="LxgnsTLY_BnMaZnDWCfZ-57" target="LxgnsTLY_BnMaZnDWCfZ-48">
          <mxGeometry relative="1" as="geometry" />
        </mxCell>
        <mxCell id="LxgnsTLY_BnMaZnDWCfZ-64" value="Data_paket" style="edgeLabel;html=1;align=center;verticalAlign=middle;resizable=0;points=[];fontColor=#1A1A1A;" vertex="1" connectable="0" parent="LxgnsTLY_BnMaZnDWCfZ-63">
          <mxGeometry x="-0.2311" y="5" relative="1" as="geometry">
            <mxPoint y="-5" as="offset" />
          </mxGeometry>
        </mxCell>
        <mxCell id="LxgnsTLY_BnMaZnDWCfZ-57" value="Paket" style="html=1;dashed=0;whiteSpace=wrap;shape=partialRectangle;right=0;left=0;" vertex="1" parent="1">
          <mxGeometry x="330" y="1040" width="110" height="40" as="geometry" />
        </mxCell>
        <mxCell id="LxgnsTLY_BnMaZnDWCfZ-68" style="edgeStyle=orthogonalEdgeStyle;rounded=0;orthogonalLoop=1;jettySize=auto;html=1;entryX=1.019;entryY=0.409;entryDx=0;entryDy=0;entryPerimeter=0;strokeColor=#736CA8;fontColor=#1A1A1A;" edge="1" parent="1" source="LxgnsTLY_BnMaZnDWCfZ-58" target="LxgnsTLY_BnMaZnDWCfZ-48">
          <mxGeometry relative="1" as="geometry">
            <Array as="points">
              <mxPoint x="385" y="1177" />
            </Array>
          </mxGeometry>
        </mxCell>
        <mxCell id="LxgnsTLY_BnMaZnDWCfZ-69" value="Data_menu" style="edgeLabel;html=1;align=center;verticalAlign=middle;resizable=0;points=[];fontColor=#1A1A1A;" vertex="1" connectable="0" parent="LxgnsTLY_BnMaZnDWCfZ-68">
          <mxGeometry x="-0.0098" y="-1" relative="1" as="geometry">
            <mxPoint as="offset" />
          </mxGeometry>
        </mxCell>
        <mxCell id="LxgnsTLY_BnMaZnDWCfZ-58" value="Menu" style="html=1;dashed=0;whiteSpace=wrap;shape=partialRectangle;right=0;left=0;" vertex="1" parent="1">
          <mxGeometry x="330" y="1100" width="110" height="40" as="geometry" />
        </mxCell>
        <mxCell id="LxgnsTLY_BnMaZnDWCfZ-70" value="Genenar Manager" style="html=1;dashed=0;whiteSpace=wrap;strokeColor=#D0CEE2;fontColor=#ffffff;fillColor=#5D7F99;" vertex="1" parent="1">
          <mxGeometry x="615" y="950" width="110" height="50" as="geometry" />
        </mxCell>
        <mxCell id="LxgnsTLY_BnMaZnDWCfZ-76" style="edgeStyle=orthogonalEdgeStyle;rounded=0;orthogonalLoop=1;jettySize=auto;html=1;entryX=1;entryY=0.5;entryDx=0;entryDy=0;strokeColor=#736CA8;fontColor=#1A1A1A;" edge="1" parent="1" source="LxgnsTLY_BnMaZnDWCfZ-73" target="LxgnsTLY_BnMaZnDWCfZ-50">
          <mxGeometry relative="1" as="geometry">
            <Array as="points">
              <mxPoint x="760" y="1400" />
              <mxPoint x="760" y="1190" />
            </Array>
          </mxGeometry>
        </mxCell>
        <mxCell id="LxgnsTLY_BnMaZnDWCfZ-77" value="Data_persediaan" style="edgeLabel;html=1;align=center;verticalAlign=middle;resizable=0;points=[];fontColor=#1A1A1A;" vertex="1" connectable="0" parent="LxgnsTLY_BnMaZnDWCfZ-76">
          <mxGeometry x="0.3253" y="1" relative="1" as="geometry">
            <mxPoint as="offset" />
          </mxGeometry>
        </mxCell>
        <mxCell id="LxgnsTLY_BnMaZnDWCfZ-78" style="edgeStyle=orthogonalEdgeStyle;rounded=0;orthogonalLoop=1;jettySize=auto;html=1;entryX=1.005;entryY=0.552;entryDx=0;entryDy=0;entryPerimeter=0;strokeColor=#736CA8;fontColor=#1A1A1A;" edge="1" parent="1" source="LxgnsTLY_BnMaZnDWCfZ-73" target="LxgnsTLY_BnMaZnDWCfZ-48">
          <mxGeometry relative="1" as="geometry" />
        </mxCell>
        <mxCell id="LxgnsTLY_BnMaZnDWCfZ-79" value="Data_persediaan" style="edgeLabel;html=1;align=center;verticalAlign=middle;resizable=0;points=[];fontColor=#1A1A1A;" vertex="1" connectable="0" parent="LxgnsTLY_BnMaZnDWCfZ-78">
          <mxGeometry x="-0.6974" y="-1" relative="1" as="geometry">
            <mxPoint as="offset" />
          </mxGeometry>
        </mxCell>
        <mxCell id="LxgnsTLY_BnMaZnDWCfZ-95" style="edgeStyle=orthogonalEdgeStyle;rounded=0;orthogonalLoop=1;jettySize=auto;html=1;entryX=0.932;entryY=0.23;entryDx=0;entryDy=0;entryPerimeter=0;strokeColor=#736CA8;fontColor=#1A1A1A;" edge="1" parent="1" source="LxgnsTLY_BnMaZnDWCfZ-73" target="LxgnsTLY_BnMaZnDWCfZ-49">
          <mxGeometry relative="1" as="geometry">
            <Array as="points">
              <mxPoint x="670" y="1520" />
              <mxPoint x="484" y="1520" />
            </Array>
          </mxGeometry>
        </mxCell>
        <mxCell id="LxgnsTLY_BnMaZnDWCfZ-96" value="Data_persediaan" style="edgeLabel;html=1;align=center;verticalAlign=middle;resizable=0;points=[];fontColor=#1A1A1A;" vertex="1" connectable="0" parent="LxgnsTLY_BnMaZnDWCfZ-95">
          <mxGeometry x="0.17" relative="1" as="geometry">
            <mxPoint as="offset" />
          </mxGeometry>
        </mxCell>
        <mxCell id="LxgnsTLY_BnMaZnDWCfZ-73" value="Stok" style="html=1;dashed=0;whiteSpace=wrap;shape=partialRectangle;right=0;left=0;" vertex="1" parent="1">
          <mxGeometry x="615" y="1380" width="110" height="40" as="geometry" />
        </mxCell>
        <mxCell id="LxgnsTLY_BnMaZnDWCfZ-81" style="edgeStyle=orthogonalEdgeStyle;rounded=0;orthogonalLoop=1;jettySize=auto;html=1;strokeColor=#736CA8;fontColor=#1A1A1A;" edge="1" parent="1" source="LxgnsTLY_BnMaZnDWCfZ-80" target="LxgnsTLY_BnMaZnDWCfZ-50">
          <mxGeometry relative="1" as="geometry">
            <mxPoint x="850.5263157894736" y="1170" as="targetPoint" />
            <Array as="points">
              <mxPoint x="830" y="1652" />
              <mxPoint x="830" y="1160" />
            </Array>
          </mxGeometry>
        </mxCell>
        <mxCell id="LxgnsTLY_BnMaZnDWCfZ-82" value="Data_pembelian" style="edgeLabel;html=1;align=center;verticalAlign=middle;resizable=0;points=[];fontColor=#1A1A1A;" vertex="1" connectable="0" parent="LxgnsTLY_BnMaZnDWCfZ-81">
          <mxGeometry x="-0.302" y="1" relative="1" as="geometry">
            <mxPoint as="offset" />
          </mxGeometry>
        </mxCell>
        <mxCell id="LxgnsTLY_BnMaZnDWCfZ-87" style="edgeStyle=orthogonalEdgeStyle;rounded=0;orthogonalLoop=1;jettySize=auto;html=1;entryX=0.69;entryY=0.992;entryDx=0;entryDy=0;entryPerimeter=0;strokeColor=#736CA8;fontColor=#1A1A1A;" edge="1" parent="1" source="LxgnsTLY_BnMaZnDWCfZ-80" target="LxgnsTLY_BnMaZnDWCfZ-49">
          <mxGeometry relative="1" as="geometry">
            <Array as="points">
              <mxPoint x="670" y="1719" />
            </Array>
          </mxGeometry>
        </mxCell>
        <mxCell id="LxgnsTLY_BnMaZnDWCfZ-88" value="Data_pembelian" style="edgeLabel;html=1;align=center;verticalAlign=middle;resizable=0;points=[];fontColor=#1A1A1A;" vertex="1" connectable="0" parent="LxgnsTLY_BnMaZnDWCfZ-87">
          <mxGeometry x="0.2718" y="1" relative="1" as="geometry">
            <mxPoint as="offset" />
          </mxGeometry>
        </mxCell>
        <mxCell id="LxgnsTLY_BnMaZnDWCfZ-80" value="Pembelian" style="html=1;dashed=0;whiteSpace=wrap;shape=partialRectangle;right=0;left=0;" vertex="1" parent="1">
          <mxGeometry x="615" y="1632.5" width="110" height="40" as="geometry" />
        </mxCell>
        <mxCell id="LxgnsTLY_BnMaZnDWCfZ-92" style="edgeStyle=orthogonalEdgeStyle;rounded=0;orthogonalLoop=1;jettySize=auto;html=1;entryX=0.5;entryY=0;entryDx=0;entryDy=0;strokeColor=#736CA8;fontColor=#1A1A1A;" edge="1" parent="1" source="LxgnsTLY_BnMaZnDWCfZ-89" target="LxgnsTLY_BnMaZnDWCfZ-49">
          <mxGeometry relative="1" as="geometry">
            <Array as="points">
              <mxPoint x="185" y="1560" />
              <mxPoint x="426" y="1560" />
            </Array>
          </mxGeometry>
        </mxCell>
        <mxCell id="LxgnsTLY_BnMaZnDWCfZ-94" value="Data_penagihan" style="edgeLabel;html=1;align=center;verticalAlign=middle;resizable=0;points=[];fontColor=#1A1A1A;" vertex="1" connectable="0" parent="LxgnsTLY_BnMaZnDWCfZ-92">
          <mxGeometry x="0.3588" relative="1" as="geometry">
            <mxPoint x="-36" as="offset" />
          </mxGeometry>
        </mxCell>
        <mxCell id="LxgnsTLY_BnMaZnDWCfZ-89" value="Supplier" style="html=1;dashed=0;whiteSpace=wrap;shape=partialRectangle;right=0;left=0;" vertex="1" parent="1">
          <mxGeometry x="130" y="1632.5" width="110" height="40" as="geometry" />
        </mxCell>
        <mxCell id="LxgnsTLY_BnMaZnDWCfZ-98" style="edgeStyle=orthogonalEdgeStyle;rounded=0;orthogonalLoop=1;jettySize=auto;html=1;strokeColor=#736CA8;fontColor=#1A1A1A;" edge="1" parent="1" source="LxgnsTLY_BnMaZnDWCfZ-97" target="LxgnsTLY_BnMaZnDWCfZ-48">
          <mxGeometry relative="1" as="geometry" />
        </mxCell>
        <mxCell id="LxgnsTLY_BnMaZnDWCfZ-99" value="Data_pesanan" style="edgeLabel;html=1;align=center;verticalAlign=middle;resizable=0;points=[];fontColor=#1A1A1A;" vertex="1" connectable="0" parent="LxgnsTLY_BnMaZnDWCfZ-98">
          <mxGeometry x="-0.1551" y="2" relative="1" as="geometry">
            <mxPoint as="offset" />
          </mxGeometry>
        </mxCell>
        <mxCell id="LxgnsTLY_BnMaZnDWCfZ-97" value="Pesanan" style="html=1;dashed=0;whiteSpace=wrap;shape=partialRectangle;right=0;left=0;" vertex="1" parent="1">
          <mxGeometry x="55" y="1380" width="110" height="40" as="geometry" />
        </mxCell>
        <mxCell id="LxgnsTLY_BnMaZnDWCfZ-107" style="edgeStyle=orthogonalEdgeStyle;rounded=0;orthogonalLoop=1;jettySize=auto;html=1;entryX=0;entryY=1;entryDx=0;entryDy=0;strokeColor=#736CA8;fontColor=#1A1A1A;" edge="1" parent="1" source="LxgnsTLY_BnMaZnDWCfZ-104" target="LxgnsTLY_BnMaZnDWCfZ-48">
          <mxGeometry relative="1" as="geometry">
            <Array as="points">
              <mxPoint x="-170" y="1240" />
            </Array>
          </mxGeometry>
        </mxCell>
        <mxCell id="LxgnsTLY_BnMaZnDWCfZ-108" value="Data_pembayaran" style="edgeLabel;html=1;align=center;verticalAlign=middle;resizable=0;points=[];fontColor=#1A1A1A;" vertex="1" connectable="0" parent="LxgnsTLY_BnMaZnDWCfZ-107">
          <mxGeometry x="0.0855" y="-2" relative="1" as="geometry">
            <mxPoint as="offset" />
          </mxGeometry>
        </mxCell>
        <mxCell id="LxgnsTLY_BnMaZnDWCfZ-104" value="Bayar" style="html=1;dashed=0;whiteSpace=wrap;shape=partialRectangle;right=0;left=0;" vertex="1" parent="1">
          <mxGeometry x="-225" y="1380" width="110" height="40" as="geometry" />
        </mxCell>
        <mxCell id="LxgnsTLY_BnMaZnDWCfZ-102" style="edgeStyle=orthogonalEdgeStyle;rounded=0;orthogonalLoop=1;jettySize=auto;html=1;strokeColor=#736CA8;fontColor=#1A1A1A;" edge="1" parent="1" source="LxgnsTLY_BnMaZnDWCfZ-97" target="LxgnsTLY_BnMaZnDWCfZ-50">
          <mxGeometry relative="1" as="geometry">
            <mxPoint x="440" y="1159.9999999999998" as="targetPoint" />
            <Array as="points">
              <mxPoint x="240" y="1400" />
              <mxPoint x="240" y="1280" />
              <mxPoint x="440" y="1280" />
              <mxPoint x="440" y="1200" />
            </Array>
          </mxGeometry>
        </mxCell>
        <mxCell id="LxgnsTLY_BnMaZnDWCfZ-103" value="Data_pesanan" style="edgeLabel;html=1;align=center;verticalAlign=middle;resizable=0;points=[];fontColor=#1A1A1A;" vertex="1" connectable="0" parent="LxgnsTLY_BnMaZnDWCfZ-102">
          <mxGeometry x="-0.2174" y="2" relative="1" as="geometry">
            <mxPoint as="offset" />
          </mxGeometry>
        </mxCell>
        <mxCell id="LxgnsTLY_BnMaZnDWCfZ-118" style="edgeStyle=orthogonalEdgeStyle;rounded=0;orthogonalLoop=1;jettySize=auto;html=1;entryX=0.5;entryY=0;entryDx=0;entryDy=0;strokeColor=#736CA8;fontColor=#1A1A1A;" edge="1" parent="1" source="LxgnsTLY_BnMaZnDWCfZ-109">
          <mxGeometry relative="1" as="geometry">
            <mxPoint x="820" y="2052.39" as="targetPoint" />
            <Array as="points">
              <mxPoint x="185" y="1949.8899999999999" />
              <mxPoint x="820" y="1949.8899999999999" />
            </Array>
          </mxGeometry>
        </mxCell>
        <mxCell id="LxgnsTLY_BnMaZnDWCfZ-119" value="Data_pesanan" style="edgeLabel;html=1;align=center;verticalAlign=middle;resizable=0;points=[];fontColor=#1A1A1A;" vertex="1" connectable="0" parent="LxgnsTLY_BnMaZnDWCfZ-118">
          <mxGeometry x="0.0458" y="-3" relative="1" as="geometry">
            <mxPoint x="-2" y="-3" as="offset" />
          </mxGeometry>
        </mxCell>
        <mxCell id="LxgnsTLY_BnMaZnDWCfZ-125" style="edgeStyle=orthogonalEdgeStyle;rounded=0;orthogonalLoop=1;jettySize=auto;html=1;entryX=0.5;entryY=0;entryDx=0;entryDy=0;strokeColor=#736CA8;fontColor=#1A1A1A;" edge="1" parent="1" source="LxgnsTLY_BnMaZnDWCfZ-109">
          <mxGeometry relative="1" as="geometry">
            <mxPoint x="540" y="2199.89" as="targetPoint" />
            <Array as="points">
              <mxPoint x="540" y="2049.89" />
            </Array>
          </mxGeometry>
        </mxCell>
        <mxCell id="LxgnsTLY_BnMaZnDWCfZ-126" value="Data_menu" style="edgeLabel;html=1;align=center;verticalAlign=middle;resizable=0;points=[];fontColor=#1A1A1A;" vertex="1" connectable="0" parent="LxgnsTLY_BnMaZnDWCfZ-125">
          <mxGeometry x="-0.0957" y="2" relative="1" as="geometry">
            <mxPoint as="offset" />
          </mxGeometry>
        </mxCell>
        <mxCell id="LxgnsTLY_BnMaZnDWCfZ-137" style="edgeStyle=orthogonalEdgeStyle;rounded=0;orthogonalLoop=1;jettySize=auto;html=1;entryX=0.5;entryY=1;entryDx=0;entryDy=0;strokeColor=#736CA8;fontColor=#1A1A1A;" edge="1" parent="1" source="LxgnsTLY_BnMaZnDWCfZ-109" target="LxgnsTLY_BnMaZnDWCfZ-111">
          <mxGeometry relative="1" as="geometry">
            <Array as="points">
              <mxPoint x="-60" y="2029.8899999999999" />
              <mxPoint x="-60" y="2749.89" />
              <mxPoint x="185" y="2749.89" />
            </Array>
          </mxGeometry>
        </mxCell>
        <mxCell id="LxgnsTLY_BnMaZnDWCfZ-140" value="Data_pemesanan" style="edgeLabel;html=1;align=center;verticalAlign=middle;resizable=0;points=[];fontColor=#1A1A1A;" vertex="1" connectable="0" parent="LxgnsTLY_BnMaZnDWCfZ-137">
          <mxGeometry x="-0.7624" y="1" relative="1" as="geometry">
            <mxPoint as="offset" />
          </mxGeometry>
        </mxCell>
        <mxCell id="LxgnsTLY_BnMaZnDWCfZ-138" style="edgeStyle=orthogonalEdgeStyle;rounded=0;orthogonalLoop=1;jettySize=auto;html=1;strokeColor=#736CA8;fontColor=#1A1A1A;entryX=0.5;entryY=0;entryDx=0;entryDy=0;" edge="1" parent="1" source="LxgnsTLY_BnMaZnDWCfZ-109" target="LxgnsTLY_BnMaZnDWCfZ-117">
          <mxGeometry relative="1" as="geometry">
            <mxPoint x="-150" y="2429.89" as="targetPoint" />
            <Array as="points">
              <mxPoint x="185" y="1989.8899999999999" />
              <mxPoint x="-140" y="1989.8899999999999" />
            </Array>
          </mxGeometry>
        </mxCell>
        <mxCell id="LxgnsTLY_BnMaZnDWCfZ-139" value="Info_pemesanan" style="edgeLabel;html=1;align=center;verticalAlign=middle;resizable=0;points=[];fontColor=#1A1A1A;" vertex="1" connectable="0" parent="LxgnsTLY_BnMaZnDWCfZ-138">
          <mxGeometry x="-0.1974" y="1" relative="1" as="geometry">
            <mxPoint x="24" as="offset" />
          </mxGeometry>
        </mxCell>
        <mxCell id="LxgnsTLY_BnMaZnDWCfZ-109" value="&lt;font color=&quot;#ffffff&quot;&gt;1.1&lt;br&gt;&lt;br&gt;Pengelolaan Data Pesanan&lt;br&gt;&lt;/font&gt;" style="shape=ellipse;html=1;dashed=0;whiteSpace=wrap;aspect=fixed;perimeter=ellipsePerimeter;strokeColor=#D0CEE2;fontColor=#1A1A1A;fillColor=#5D7F99;" vertex="1" parent="1">
          <mxGeometry x="117.5" y="2009.8899999999999" width="135" height="135" as="geometry" />
        </mxCell>
        <mxCell id="LxgnsTLY_BnMaZnDWCfZ-129" style="edgeStyle=orthogonalEdgeStyle;rounded=0;orthogonalLoop=1;jettySize=auto;html=1;entryX=0.5;entryY=1;entryDx=0;entryDy=0;strokeColor=#736CA8;fontColor=#1A1A1A;" edge="1" parent="1" source="LxgnsTLY_BnMaZnDWCfZ-110">
          <mxGeometry relative="1" as="geometry">
            <mxPoint x="540" y="2249.89" as="targetPoint" />
            <Array as="points">
              <mxPoint x="540" y="2349.89" />
            </Array>
          </mxGeometry>
        </mxCell>
        <mxCell id="LxgnsTLY_BnMaZnDWCfZ-130" value="Data_menu" style="edgeLabel;html=1;align=center;verticalAlign=middle;resizable=0;points=[];fontColor=#1A1A1A;" vertex="1" connectable="0" parent="LxgnsTLY_BnMaZnDWCfZ-129">
          <mxGeometry x="-0.5619" y="-1" relative="1" as="geometry">
            <mxPoint as="offset" />
          </mxGeometry>
        </mxCell>
        <mxCell id="LxgnsTLY_BnMaZnDWCfZ-131" style="edgeStyle=orthogonalEdgeStyle;rounded=0;orthogonalLoop=1;jettySize=auto;html=1;entryX=0;entryY=0.5;entryDx=0;entryDy=0;strokeColor=#736CA8;fontColor=#1A1A1A;" edge="1" parent="1" source="LxgnsTLY_BnMaZnDWCfZ-110">
          <mxGeometry relative="1" as="geometry">
            <mxPoint x="480" y="2514.89" as="targetPoint" />
            <Array as="points">
              <mxPoint x="185" y="2514.89" />
            </Array>
          </mxGeometry>
        </mxCell>
        <mxCell id="LxgnsTLY_BnMaZnDWCfZ-132" value="Data_paket" style="edgeLabel;html=1;align=center;verticalAlign=middle;resizable=0;points=[];fontColor=#1A1A1A;" vertex="1" connectable="0" parent="LxgnsTLY_BnMaZnDWCfZ-131">
          <mxGeometry x="0.0719" y="1" relative="1" as="geometry">
            <mxPoint as="offset" />
          </mxGeometry>
        </mxCell>
        <mxCell id="LxgnsTLY_BnMaZnDWCfZ-110" value="&lt;font color=&quot;#ffffff&quot;&gt;1.2&lt;br&gt;&lt;br&gt;Pengelolaan Pesanan Menu Paket&lt;br&gt;&lt;/font&gt;" style="shape=ellipse;html=1;dashed=0;whiteSpace=wrap;aspect=fixed;perimeter=ellipsePerimeter;strokeColor=#D0CEE2;fontColor=#1A1A1A;fillColor=#5D7F99;" vertex="1" parent="1">
          <mxGeometry x="117.5" y="2299.89" width="135" height="135" as="geometry" />
        </mxCell>
        <mxCell id="LxgnsTLY_BnMaZnDWCfZ-154" style="edgeStyle=orthogonalEdgeStyle;rounded=0;orthogonalLoop=1;jettySize=auto;html=1;strokeColor=#736CA8;fontColor=#1A1A1A;" edge="1" parent="1" source="LxgnsTLY_BnMaZnDWCfZ-111" target="LxgnsTLY_BnMaZnDWCfZ-115">
          <mxGeometry relative="1" as="geometry">
            <Array as="points">
              <mxPoint x="540" y="2689.89" />
            </Array>
          </mxGeometry>
        </mxCell>
        <mxCell id="LxgnsTLY_BnMaZnDWCfZ-155" value="Data_diskon" style="edgeLabel;html=1;align=center;verticalAlign=middle;resizable=0;points=[];fontColor=#1A1A1A;" vertex="1" connectable="0" parent="LxgnsTLY_BnMaZnDWCfZ-154">
          <mxGeometry x="-0.0861" y="1" relative="1" as="geometry">
            <mxPoint as="offset" />
          </mxGeometry>
        </mxCell>
        <mxCell id="LxgnsTLY_BnMaZnDWCfZ-111" value="&lt;font color=&quot;#ffffff&quot;&gt;1.3&lt;br&gt;&lt;br&gt;Pengelolaan Diskonan&lt;br&gt;&lt;/font&gt;" style="shape=ellipse;html=1;dashed=0;whiteSpace=wrap;aspect=fixed;perimeter=ellipsePerimeter;strokeColor=#D0CEE2;fontColor=#1A1A1A;fillColor=#5D7F99;" vertex="1" parent="1">
          <mxGeometry x="117.5" y="2579.89" width="135" height="135" as="geometry" />
        </mxCell>
        <mxCell id="LxgnsTLY_BnMaZnDWCfZ-123" style="edgeStyle=orthogonalEdgeStyle;rounded=0;orthogonalLoop=1;jettySize=auto;html=1;entryX=1;entryY=0.5;entryDx=0;entryDy=0;strokeColor=#736CA8;fontColor=#1A1A1A;" edge="1" parent="1" target="LxgnsTLY_BnMaZnDWCfZ-109">
          <mxGeometry relative="1" as="geometry">
            <mxPoint x="480" y="2199.89" as="sourcePoint" />
            <Array as="points">
              <mxPoint x="480" y="2077.89" />
              <mxPoint x="366" y="2077.89" />
            </Array>
          </mxGeometry>
        </mxCell>
        <mxCell id="LxgnsTLY_BnMaZnDWCfZ-124" value="Data_menu" style="edgeLabel;html=1;align=center;verticalAlign=middle;resizable=0;points=[];fontColor=#1A1A1A;" vertex="1" connectable="0" parent="LxgnsTLY_BnMaZnDWCfZ-123">
          <mxGeometry x="0.3686" y="-1" relative="1" as="geometry">
            <mxPoint as="offset" />
          </mxGeometry>
        </mxCell>
        <mxCell id="LxgnsTLY_BnMaZnDWCfZ-127" style="edgeStyle=orthogonalEdgeStyle;rounded=0;orthogonalLoop=1;jettySize=auto;html=1;strokeColor=#736CA8;fontColor=#1A1A1A;" edge="1" parent="1" target="LxgnsTLY_BnMaZnDWCfZ-110">
          <mxGeometry relative="1" as="geometry">
            <mxPoint x="480" y="2229.89" as="sourcePoint" />
            <Array as="points">
              <mxPoint x="185" y="2229.89" />
            </Array>
          </mxGeometry>
        </mxCell>
        <mxCell id="LxgnsTLY_BnMaZnDWCfZ-128" value="Data_menu" style="edgeLabel;html=1;align=center;verticalAlign=middle;resizable=0;points=[];fontColor=#1A1A1A;" vertex="1" connectable="0" parent="LxgnsTLY_BnMaZnDWCfZ-127">
          <mxGeometry x="-0.2349" y="1" relative="1" as="geometry">
            <mxPoint as="offset" />
          </mxGeometry>
        </mxCell>
        <mxCell id="LxgnsTLY_BnMaZnDWCfZ-133" style="edgeStyle=orthogonalEdgeStyle;rounded=0;orthogonalLoop=1;jettySize=auto;html=1;entryX=0.999;entryY=0.665;entryDx=0;entryDy=0;entryPerimeter=0;strokeColor=#736CA8;fontColor=#1A1A1A;" edge="1" parent="1" target="LxgnsTLY_BnMaZnDWCfZ-110">
          <mxGeometry relative="1" as="geometry">
            <mxPoint x="540" y="2489.89" as="sourcePoint" />
            <Array as="points">
              <mxPoint x="540" y="2389.89" />
            </Array>
          </mxGeometry>
        </mxCell>
        <mxCell id="LxgnsTLY_BnMaZnDWCfZ-134" value="Data_paket" style="edgeLabel;html=1;align=center;verticalAlign=middle;resizable=0;points=[];fontColor=#1A1A1A;" vertex="1" connectable="0" parent="LxgnsTLY_BnMaZnDWCfZ-133">
          <mxGeometry x="0.5584" y="2" relative="1" as="geometry">
            <mxPoint as="offset" />
          </mxGeometry>
        </mxCell>
        <mxCell id="LxgnsTLY_BnMaZnDWCfZ-152" style="edgeStyle=orthogonalEdgeStyle;rounded=0;orthogonalLoop=1;jettySize=auto;html=1;entryX=1;entryY=0;entryDx=0;entryDy=0;strokeColor=#736CA8;fontColor=#1A1A1A;" edge="1" parent="1" target="LxgnsTLY_BnMaZnDWCfZ-115">
          <mxGeometry relative="1" as="geometry">
            <mxPoint x="600" y="2539.89" as="sourcePoint" />
            <Array as="points">
              <mxPoint x="600" y="2769.89" />
            </Array>
          </mxGeometry>
        </mxCell>
        <mxCell id="LxgnsTLY_BnMaZnDWCfZ-153" value="Data_paket" style="edgeLabel;html=1;align=center;verticalAlign=middle;resizable=0;points=[];fontColor=#1A1A1A;" vertex="1" connectable="0" parent="LxgnsTLY_BnMaZnDWCfZ-152">
          <mxGeometry x="0.3928" y="1" relative="1" as="geometry">
            <mxPoint as="offset" />
          </mxGeometry>
        </mxCell>
        <mxCell id="LxgnsTLY_BnMaZnDWCfZ-121" style="edgeStyle=orthogonalEdgeStyle;rounded=0;orthogonalLoop=1;jettySize=auto;html=1;entryX=1;entryY=0;entryDx=0;entryDy=0;strokeColor=#736CA8;fontColor=#1A1A1A;" edge="1" parent="1" target="LxgnsTLY_BnMaZnDWCfZ-109">
          <mxGeometry relative="1" as="geometry">
            <mxPoint x="760" y="2052.39" as="sourcePoint" />
            <Array as="points">
              <mxPoint x="760" y="1989.8899999999999" />
              <mxPoint x="233" y="1989.8899999999999" />
            </Array>
          </mxGeometry>
        </mxCell>
        <mxCell id="LxgnsTLY_BnMaZnDWCfZ-122" value="Data_pesanan" style="edgeLabel;html=1;align=center;verticalAlign=middle;resizable=0;points=[];fontColor=#1A1A1A;" vertex="1" connectable="0" parent="LxgnsTLY_BnMaZnDWCfZ-121">
          <mxGeometry x="-0.2106" y="1" relative="1" as="geometry">
            <mxPoint x="-34" y="-1" as="offset" />
          </mxGeometry>
        </mxCell>
        <mxCell id="LxgnsTLY_BnMaZnDWCfZ-147" style="edgeStyle=orthogonalEdgeStyle;rounded=0;orthogonalLoop=1;jettySize=auto;html=1;entryX=0.996;entryY=0.377;entryDx=0;entryDy=0;entryPerimeter=0;strokeColor=#736CA8;fontColor=#1A1A1A;" edge="1" parent="1" target="LxgnsTLY_BnMaZnDWCfZ-111">
          <mxGeometry relative="1" as="geometry">
            <mxPoint x="760" y="2102.39" as="sourcePoint" />
            <Array as="points">
              <mxPoint x="760" y="2630.89" />
            </Array>
          </mxGeometry>
        </mxCell>
        <mxCell id="LxgnsTLY_BnMaZnDWCfZ-148" value="Data_pesanan" style="edgeLabel;html=1;align=center;verticalAlign=middle;resizable=0;points=[];fontColor=#1A1A1A;" vertex="1" connectable="0" parent="LxgnsTLY_BnMaZnDWCfZ-147">
          <mxGeometry x="0.2238" y="-1" relative="1" as="geometry">
            <mxPoint x="46" as="offset" />
          </mxGeometry>
        </mxCell>
        <mxCell id="LxgnsTLY_BnMaZnDWCfZ-150" style="edgeStyle=orthogonalEdgeStyle;rounded=0;orthogonalLoop=1;jettySize=auto;html=1;entryX=1;entryY=0.5;entryDx=0;entryDy=0;strokeColor=#736CA8;fontColor=#1A1A1A;" edge="1" parent="1" source="LxgnsTLY_BnMaZnDWCfZ-223" target="LxgnsTLY_BnMaZnDWCfZ-115">
          <mxGeometry relative="1" as="geometry">
            <mxPoint x="820" y="2102.39" as="sourcePoint" />
            <Array as="points">
              <mxPoint x="820" y="2816.89" />
            </Array>
          </mxGeometry>
        </mxCell>
        <mxCell id="LxgnsTLY_BnMaZnDWCfZ-151" value="Data_pesanan" style="edgeLabel;html=1;align=center;verticalAlign=middle;resizable=0;points=[];fontColor=#1A1A1A;" vertex="1" connectable="0" parent="LxgnsTLY_BnMaZnDWCfZ-150">
          <mxGeometry x="0.6789" relative="1" as="geometry">
            <mxPoint as="offset" />
          </mxGeometry>
        </mxCell>
        <mxCell id="LxgnsTLY_BnMaZnDWCfZ-145" style="edgeStyle=orthogonalEdgeStyle;rounded=0;orthogonalLoop=1;jettySize=auto;html=1;entryX=0.5;entryY=1;entryDx=0;entryDy=0;strokeColor=#736CA8;fontColor=#1A1A1A;" edge="1" parent="1" source="LxgnsTLY_BnMaZnDWCfZ-115" target="LxgnsTLY_BnMaZnDWCfZ-117">
          <mxGeometry relative="1" as="geometry" />
        </mxCell>
        <mxCell id="LxgnsTLY_BnMaZnDWCfZ-146" value="Info_pembayaran" style="edgeLabel;html=1;align=center;verticalAlign=middle;resizable=0;points=[];fontColor=#1A1A1A;" vertex="1" connectable="0" parent="LxgnsTLY_BnMaZnDWCfZ-145">
          <mxGeometry x="0.0805" y="2" relative="1" as="geometry">
            <mxPoint x="29" y="-2" as="offset" />
          </mxGeometry>
        </mxCell>
        <mxCell id="LxgnsTLY_BnMaZnDWCfZ-158" style="edgeStyle=orthogonalEdgeStyle;rounded=0;orthogonalLoop=1;jettySize=auto;html=1;entryX=0;entryY=0.5;entryDx=0;entryDy=0;strokeColor=#736CA8;fontColor=#1A1A1A;" edge="1" parent="1" source="LxgnsTLY_BnMaZnDWCfZ-115">
          <mxGeometry relative="1" as="geometry">
            <mxPoint x="480" y="3014.89" as="targetPoint" />
            <Array as="points">
              <mxPoint x="440" y="2849.89" />
              <mxPoint x="440" y="3014.89" />
            </Array>
          </mxGeometry>
        </mxCell>
        <mxCell id="LxgnsTLY_BnMaZnDWCfZ-159" value="Data_pembayaran" style="edgeLabel;html=1;align=center;verticalAlign=middle;resizable=0;points=[];fontColor=#1A1A1A;" vertex="1" connectable="0" parent="LxgnsTLY_BnMaZnDWCfZ-158">
          <mxGeometry x="-0.2086" y="1" relative="1" as="geometry">
            <mxPoint as="offset" />
          </mxGeometry>
        </mxCell>
        <mxCell id="LxgnsTLY_BnMaZnDWCfZ-115" value="&lt;font color=&quot;#ffffff&quot;&gt;1.4&lt;br&gt;&lt;br&gt;Pengelolaan pembayaran&lt;br&gt;&lt;/font&gt;" style="shape=ellipse;html=1;dashed=0;whiteSpace=wrap;aspect=fixed;perimeter=ellipsePerimeter;strokeColor=#D0CEE2;fontColor=#1A1A1A;fillColor=#5D7F99;" vertex="1" parent="1">
          <mxGeometry x="472.5" y="2749.89" width="135" height="135" as="geometry" />
        </mxCell>
        <mxCell id="LxgnsTLY_BnMaZnDWCfZ-156" style="edgeStyle=orthogonalEdgeStyle;rounded=0;orthogonalLoop=1;jettySize=auto;html=1;entryX=0.943;entryY=0.764;entryDx=0;entryDy=0;entryPerimeter=0;strokeColor=#736CA8;fontColor=#1A1A1A;" edge="1" parent="1" target="LxgnsTLY_BnMaZnDWCfZ-115">
          <mxGeometry relative="1" as="geometry">
            <mxPoint x="600" y="3014.89" as="sourcePoint" />
            <Array as="points">
              <mxPoint x="650" y="3014.89" />
              <mxPoint x="650" y="2852.89" />
            </Array>
          </mxGeometry>
        </mxCell>
        <mxCell id="LxgnsTLY_BnMaZnDWCfZ-157" value="Data_pembayaran" style="edgeLabel;html=1;align=center;verticalAlign=middle;resizable=0;points=[];fontColor=#1A1A1A;" vertex="1" connectable="0" parent="LxgnsTLY_BnMaZnDWCfZ-156">
          <mxGeometry x="0.1506" relative="1" as="geometry">
            <mxPoint as="offset" />
          </mxGeometry>
        </mxCell>
        <mxCell id="LxgnsTLY_BnMaZnDWCfZ-135" style="edgeStyle=orthogonalEdgeStyle;rounded=0;orthogonalLoop=1;jettySize=auto;html=1;strokeColor=#736CA8;fontColor=#1A1A1A;" edge="1" parent="1" source="LxgnsTLY_BnMaZnDWCfZ-117" target="LxgnsTLY_BnMaZnDWCfZ-110">
          <mxGeometry relative="1" as="geometry">
            <Array as="points">
              <mxPoint x="-30" y="2367.89" />
              <mxPoint x="-30" y="2367.89" />
            </Array>
          </mxGeometry>
        </mxCell>
        <mxCell id="LxgnsTLY_BnMaZnDWCfZ-136" value="Data_paket" style="edgeLabel;html=1;align=center;verticalAlign=middle;resizable=0;points=[];fontColor=#1A1A1A;" vertex="1" connectable="0" parent="LxgnsTLY_BnMaZnDWCfZ-135">
          <mxGeometry x="-0.2668" y="1" relative="1" as="geometry">
            <mxPoint x="47" as="offset" />
          </mxGeometry>
        </mxCell>
        <mxCell id="LxgnsTLY_BnMaZnDWCfZ-141" style="edgeStyle=orthogonalEdgeStyle;rounded=0;orthogonalLoop=1;jettySize=auto;html=1;entryX=0;entryY=0.5;entryDx=0;entryDy=0;strokeColor=#736CA8;fontColor=#1A1A1A;" edge="1" parent="1" source="LxgnsTLY_BnMaZnDWCfZ-117" target="LxgnsTLY_BnMaZnDWCfZ-109">
          <mxGeometry relative="1" as="geometry">
            <Array as="points">
              <mxPoint y="2366.89" />
              <mxPoint y="2076.89" />
            </Array>
          </mxGeometry>
        </mxCell>
        <mxCell id="LxgnsTLY_BnMaZnDWCfZ-142" value="Data_pesanan" style="edgeLabel;html=1;align=center;verticalAlign=middle;resizable=0;points=[];fontColor=#1A1A1A;" vertex="1" connectable="0" parent="LxgnsTLY_BnMaZnDWCfZ-141">
          <mxGeometry x="0.6181" y="-1" relative="1" as="geometry">
            <mxPoint x="26" y="-1" as="offset" />
          </mxGeometry>
        </mxCell>
        <mxCell id="LxgnsTLY_BnMaZnDWCfZ-143" style="edgeStyle=orthogonalEdgeStyle;rounded=0;orthogonalLoop=1;jettySize=auto;html=1;entryX=0.004;entryY=0.547;entryDx=0;entryDy=0;entryPerimeter=0;strokeColor=#736CA8;fontColor=#1A1A1A;" edge="1" parent="1" source="LxgnsTLY_BnMaZnDWCfZ-117" target="LxgnsTLY_BnMaZnDWCfZ-111">
          <mxGeometry relative="1" as="geometry">
            <Array as="points">
              <mxPoint y="2366.89" />
              <mxPoint y="2653.89" />
            </Array>
          </mxGeometry>
        </mxCell>
        <mxCell id="LxgnsTLY_BnMaZnDWCfZ-144" value="Data_pelanggan" style="edgeLabel;html=1;align=center;verticalAlign=middle;resizable=0;points=[];fontColor=#1A1A1A;" vertex="1" connectable="0" parent="LxgnsTLY_BnMaZnDWCfZ-143">
          <mxGeometry x="0.6497" y="-1" relative="1" as="geometry">
            <mxPoint x="17" as="offset" />
          </mxGeometry>
        </mxCell>
        <mxCell id="LxgnsTLY_BnMaZnDWCfZ-117" value="Pelanggan" style="html=1;dashed=0;whiteSpace=wrap;strokeColor=#D0CEE2;fontColor=#FFFFFF;fillColor=#5D7F99;" vertex="1" parent="1">
          <mxGeometry x="-200" y="2342.39" width="120" height="50" as="geometry" />
        </mxCell>
        <mxCell id="LxgnsTLY_BnMaZnDWCfZ-165" style="edgeStyle=orthogonalEdgeStyle;rounded=0;orthogonalLoop=1;jettySize=auto;html=1;strokeColor=#736CA8;fontColor=#1A1A1A;" edge="1" parent="1" source="LxgnsTLY_BnMaZnDWCfZ-160" target="LxgnsTLY_BnMaZnDWCfZ-161">
          <mxGeometry relative="1" as="geometry" />
        </mxCell>
        <mxCell id="LxgnsTLY_BnMaZnDWCfZ-166" value="Data_pembelian" style="edgeLabel;html=1;align=center;verticalAlign=middle;resizable=0;points=[];fontColor=#1A1A1A;" vertex="1" connectable="0" parent="LxgnsTLY_BnMaZnDWCfZ-165">
          <mxGeometry x="-0.3937" relative="1" as="geometry">
            <mxPoint as="offset" />
          </mxGeometry>
        </mxCell>
        <mxCell id="LxgnsTLY_BnMaZnDWCfZ-174" style="edgeStyle=orthogonalEdgeStyle;rounded=0;orthogonalLoop=1;jettySize=auto;html=1;entryX=0.5;entryY=0;entryDx=0;entryDy=0;strokeColor=#736CA8;fontColor=#1A1A1A;" edge="1" parent="1" source="LxgnsTLY_BnMaZnDWCfZ-160" target="LxgnsTLY_BnMaZnDWCfZ-164">
          <mxGeometry relative="1" as="geometry" />
        </mxCell>
        <mxCell id="LxgnsTLY_BnMaZnDWCfZ-175" value="Data_pembelian" style="edgeLabel;html=1;align=center;verticalAlign=middle;resizable=0;points=[];fontColor=#1A1A1A;" vertex="1" connectable="0" parent="LxgnsTLY_BnMaZnDWCfZ-174">
          <mxGeometry x="-0.2222" y="-1" relative="1" as="geometry">
            <mxPoint x="24" y="1" as="offset" />
          </mxGeometry>
        </mxCell>
        <mxCell id="LxgnsTLY_BnMaZnDWCfZ-176" style="edgeStyle=orthogonalEdgeStyle;rounded=0;orthogonalLoop=1;jettySize=auto;html=1;strokeColor=#736CA8;fontColor=#1A1A1A;" edge="1" parent="1" source="LxgnsTLY_BnMaZnDWCfZ-160">
          <mxGeometry relative="1" as="geometry">
            <mxPoint x="710.0270270270269" y="3420" as="targetPoint" />
            <Array as="points">
              <mxPoint x="710" y="3200" />
            </Array>
          </mxGeometry>
        </mxCell>
        <mxCell id="LxgnsTLY_BnMaZnDWCfZ-177" value="Data_pembelian" style="edgeLabel;html=1;align=center;verticalAlign=middle;resizable=0;points=[];fontColor=#1A1A1A;" vertex="1" connectable="0" parent="LxgnsTLY_BnMaZnDWCfZ-176">
          <mxGeometry x="-0.066" relative="1" as="geometry">
            <mxPoint as="offset" />
          </mxGeometry>
        </mxCell>
        <mxCell id="LxgnsTLY_BnMaZnDWCfZ-160" value="&lt;font color=&quot;#ffffff&quot;&gt;2.1&lt;br&gt;&lt;br&gt;Pengelolaan bahan-bahan baku&lt;br&gt;&lt;/font&gt;" style="shape=ellipse;html=1;dashed=0;whiteSpace=wrap;aspect=fixed;perimeter=ellipsePerimeter;strokeColor=#D0CEE2;fontColor=#1A1A1A;fillColor=#5D7F99;" vertex="1" parent="1">
          <mxGeometry x="200" y="3180" width="135" height="135" as="geometry" />
        </mxCell>
        <mxCell id="LxgnsTLY_BnMaZnDWCfZ-161" value="&lt;font color=&quot;#ffffff&quot;&gt;2.2&lt;br&gt;&lt;br&gt;Pengelolaan Pembayaran&lt;br&gt;&lt;/font&gt;" style="shape=ellipse;html=1;dashed=0;whiteSpace=wrap;aspect=fixed;perimeter=ellipsePerimeter;strokeColor=#D0CEE2;fontColor=#1A1A1A;fillColor=#5D7F99;" vertex="1" parent="1">
          <mxGeometry x="200" y="3580" width="135" height="135" as="geometry" />
        </mxCell>
        <mxCell id="LxgnsTLY_BnMaZnDWCfZ-167" style="edgeStyle=orthogonalEdgeStyle;rounded=0;orthogonalLoop=1;jettySize=auto;html=1;entryX=1;entryY=1;entryDx=0;entryDy=0;strokeColor=#736CA8;fontColor=#1A1A1A;" edge="1" parent="1" target="LxgnsTLY_BnMaZnDWCfZ-160">
          <mxGeometry relative="1" as="geometry">
            <mxPoint x="440.02702702702686" y="3420" as="sourcePoint" />
            <Array as="points">
              <mxPoint x="440" y="3295" />
            </Array>
          </mxGeometry>
        </mxCell>
        <mxCell id="LxgnsTLY_BnMaZnDWCfZ-168" value="Data_persediaan" style="edgeLabel;html=1;align=center;verticalAlign=middle;resizable=0;points=[];fontColor=#1A1A1A;" vertex="1" connectable="0" parent="LxgnsTLY_BnMaZnDWCfZ-167">
          <mxGeometry x="0.6786" y="-2" relative="1" as="geometry">
            <mxPoint x="35" as="offset" />
          </mxGeometry>
        </mxCell>
        <mxCell id="LxgnsTLY_BnMaZnDWCfZ-178" style="edgeStyle=orthogonalEdgeStyle;rounded=0;orthogonalLoop=1;jettySize=auto;html=1;entryX=1;entryY=0.5;entryDx=0;entryDy=0;strokeColor=#736CA8;fontColor=#1A1A1A;" edge="1" parent="1" target="LxgnsTLY_BnMaZnDWCfZ-160">
          <mxGeometry relative="1" as="geometry">
            <mxPoint x="650.0270270270269" y="3420" as="sourcePoint" />
            <Array as="points">
              <mxPoint x="650" y="3248" />
              <mxPoint x="493" y="3248" />
            </Array>
          </mxGeometry>
        </mxCell>
        <mxCell id="LxgnsTLY_BnMaZnDWCfZ-179" value="Data_pembelian" style="edgeLabel;html=1;align=center;verticalAlign=middle;resizable=0;points=[];fontColor=#1A1A1A;" vertex="1" connectable="0" parent="LxgnsTLY_BnMaZnDWCfZ-178">
          <mxGeometry x="0.0964" y="-1" relative="1" as="geometry">
            <mxPoint as="offset" />
          </mxGeometry>
        </mxCell>
        <mxCell id="LxgnsTLY_BnMaZnDWCfZ-180" style="edgeStyle=orthogonalEdgeStyle;rounded=0;orthogonalLoop=1;jettySize=auto;html=1;entryX=1.006;entryY=0.608;entryDx=0;entryDy=0;entryPerimeter=0;strokeColor=#736CA8;fontColor=#1A1A1A;" edge="1" parent="1" target="LxgnsTLY_BnMaZnDWCfZ-161">
          <mxGeometry relative="1" as="geometry">
            <mxPoint x="710.0270270270269" y="3470" as="sourcePoint" />
            <Array as="points">
              <mxPoint x="710" y="3662" />
            </Array>
          </mxGeometry>
        </mxCell>
        <mxCell id="LxgnsTLY_BnMaZnDWCfZ-181" value="Data_pembelian" style="edgeLabel;html=1;align=center;verticalAlign=middle;resizable=0;points=[];fontColor=#1A1A1A;" vertex="1" connectable="0" parent="LxgnsTLY_BnMaZnDWCfZ-180">
          <mxGeometry x="0.1106" y="1" relative="1" as="geometry">
            <mxPoint x="53" y="-3" as="offset" />
          </mxGeometry>
        </mxCell>
        <mxCell id="LxgnsTLY_BnMaZnDWCfZ-169" style="edgeStyle=orthogonalEdgeStyle;rounded=0;orthogonalLoop=1;jettySize=auto;html=1;entryX=0;entryY=0.5;entryDx=0;entryDy=0;strokeColor=#736CA8;fontColor=#1A1A1A;" edge="1" parent="1" source="LxgnsTLY_BnMaZnDWCfZ-164" target="LxgnsTLY_BnMaZnDWCfZ-161">
          <mxGeometry relative="1" as="geometry">
            <Array as="points">
              <mxPoint x="30" y="3648" />
              <mxPoint x="145" y="3648" />
            </Array>
          </mxGeometry>
        </mxCell>
        <mxCell id="LxgnsTLY_BnMaZnDWCfZ-171" value="Data_penagihan" style="edgeLabel;html=1;align=center;verticalAlign=middle;resizable=0;points=[];fontColor=#1A1A1A;" vertex="1" connectable="0" parent="LxgnsTLY_BnMaZnDWCfZ-169">
          <mxGeometry x="0.4276" y="2" relative="1" as="geometry">
            <mxPoint as="offset" />
          </mxGeometry>
        </mxCell>
        <mxCell id="LxgnsTLY_BnMaZnDWCfZ-172" style="edgeStyle=orthogonalEdgeStyle;rounded=0;orthogonalLoop=1;jettySize=auto;html=1;entryX=0.5;entryY=1;entryDx=0;entryDy=0;strokeColor=#736CA8;fontColor=#1A1A1A;" edge="1" parent="1" source="LxgnsTLY_BnMaZnDWCfZ-164" target="LxgnsTLY_BnMaZnDWCfZ-161">
          <mxGeometry relative="1" as="geometry">
            <Array as="points">
              <mxPoint x="-30" y="3740" />
              <mxPoint x="268" y="3740" />
            </Array>
          </mxGeometry>
        </mxCell>
        <mxCell id="LxgnsTLY_BnMaZnDWCfZ-173" value="Data_pembayaran" style="edgeLabel;html=1;align=center;verticalAlign=middle;resizable=0;points=[];fontColor=#1A1A1A;" vertex="1" connectable="0" parent="LxgnsTLY_BnMaZnDWCfZ-172">
          <mxGeometry x="0.2084" y="2" relative="1" as="geometry">
            <mxPoint as="offset" />
          </mxGeometry>
        </mxCell>
        <mxCell id="LxgnsTLY_BnMaZnDWCfZ-164" value="Supplier" style="html=1;dashed=0;whiteSpace=wrap;strokeColor=#D0CEE2;fontColor=#FFFFFF;fillColor=#5D7F99;" vertex="1" parent="1">
          <mxGeometry x="-30" y="3420" width="120" height="50" as="geometry" />
        </mxCell>
        <mxCell id="LxgnsTLY_BnMaZnDWCfZ-193" style="edgeStyle=orthogonalEdgeStyle;rounded=0;orthogonalLoop=1;jettySize=auto;html=1;entryX=0;entryY=0.5;entryDx=0;entryDy=0;strokeColor=#736CA8;fontColor=#1A1A1A;" edge="1" parent="1" source="LxgnsTLY_BnMaZnDWCfZ-182" target="LxgnsTLY_BnMaZnDWCfZ-184">
          <mxGeometry relative="1" as="geometry">
            <Array as="points">
              <mxPoint y="3967.5000000000005" />
              <mxPoint y="4608" />
            </Array>
          </mxGeometry>
        </mxCell>
        <mxCell id="LxgnsTLY_BnMaZnDWCfZ-194" value="Data_pemakaian" style="edgeLabel;html=1;align=center;verticalAlign=middle;resizable=0;points=[];fontColor=#1A1A1A;" vertex="1" connectable="0" parent="LxgnsTLY_BnMaZnDWCfZ-193">
          <mxGeometry x="0.0278" y="1" relative="1" as="geometry">
            <mxPoint as="offset" />
          </mxGeometry>
        </mxCell>
        <mxCell id="LxgnsTLY_BnMaZnDWCfZ-197" style="edgeStyle=orthogonalEdgeStyle;rounded=0;orthogonalLoop=1;jettySize=auto;html=1;entryX=0.5;entryY=0;entryDx=0;entryDy=0;strokeColor=#736CA8;fontColor=#1A1A1A;" edge="1" parent="1" source="LxgnsTLY_BnMaZnDWCfZ-182">
          <mxGeometry relative="1" as="geometry">
            <mxPoint x="630" y="4262.5" as="targetPoint" />
          </mxGeometry>
        </mxCell>
        <mxCell id="LxgnsTLY_BnMaZnDWCfZ-198" value="Data_pemakaian" style="edgeLabel;html=1;align=center;verticalAlign=middle;resizable=0;points=[];fontColor=#1A1A1A;" vertex="1" connectable="0" parent="LxgnsTLY_BnMaZnDWCfZ-197">
          <mxGeometry x="-0.1933" relative="1" as="geometry">
            <mxPoint as="offset" />
          </mxGeometry>
        </mxCell>
        <mxCell id="LxgnsTLY_BnMaZnDWCfZ-182" value="&lt;font color=&quot;#ffffff&quot;&gt;3.1&lt;br&gt;&lt;br&gt;Pengelolaan Data Pengeluaran Bahan&lt;br&gt;&lt;/font&gt;" style="shape=ellipse;html=1;dashed=0;whiteSpace=wrap;aspect=fixed;perimeter=ellipsePerimeter;strokeColor=#D0CEE2;fontColor=#1A1A1A;fillColor=#5D7F99;" vertex="1" parent="1">
          <mxGeometry x="119.99999999999999" y="3900" width="135" height="135" as="geometry" />
        </mxCell>
        <mxCell id="LxgnsTLY_BnMaZnDWCfZ-191" style="edgeStyle=orthogonalEdgeStyle;rounded=0;orthogonalLoop=1;jettySize=auto;html=1;entryX=0.5;entryY=0;entryDx=0;entryDy=0;strokeColor=#736CA8;fontColor=#1A1A1A;" edge="1" parent="1" source="LxgnsTLY_BnMaZnDWCfZ-183" target="LxgnsTLY_BnMaZnDWCfZ-184">
          <mxGeometry relative="1" as="geometry" />
        </mxCell>
        <mxCell id="LxgnsTLY_BnMaZnDWCfZ-192" value="Data_pembelian" style="edgeLabel;html=1;align=center;verticalAlign=middle;resizable=0;points=[];fontColor=#1A1A1A;" vertex="1" connectable="0" parent="LxgnsTLY_BnMaZnDWCfZ-191">
          <mxGeometry x="-0.2749" y="-1" relative="1" as="geometry">
            <mxPoint as="offset" />
          </mxGeometry>
        </mxCell>
        <mxCell id="LxgnsTLY_BnMaZnDWCfZ-183" value="&lt;font color=&quot;#ffffff&quot;&gt;3.2&lt;br&gt;&lt;br&gt;Pengelolaan Data Pemasukan Bahan&lt;br&gt;&lt;/font&gt;" style="shape=ellipse;html=1;dashed=0;whiteSpace=wrap;aspect=fixed;perimeter=ellipsePerimeter;strokeColor=#D0CEE2;fontColor=#1A1A1A;fillColor=#5D7F99;" vertex="1" parent="1">
          <mxGeometry x="119.99999999999999" y="4220" width="135" height="135" as="geometry" />
        </mxCell>
        <mxCell id="LxgnsTLY_BnMaZnDWCfZ-189" style="edgeStyle=orthogonalEdgeStyle;rounded=0;orthogonalLoop=1;jettySize=auto;html=1;entryX=0.5;entryY=0;entryDx=0;entryDy=0;strokeColor=#736CA8;fontColor=#1A1A1A;" edge="1" parent="1" source="LxgnsTLY_BnMaZnDWCfZ-184" target="LxgnsTLY_BnMaZnDWCfZ-188">
          <mxGeometry relative="1" as="geometry" />
        </mxCell>
        <mxCell id="LxgnsTLY_BnMaZnDWCfZ-190" value="Lap. Pengeluaran &amp;amp; Pemasukan Barang" style="edgeLabel;html=1;align=center;verticalAlign=middle;resizable=0;points=[];fontColor=#1A1A1A;" vertex="1" connectable="0" parent="LxgnsTLY_BnMaZnDWCfZ-189">
          <mxGeometry x="-0.1598" y="1" relative="1" as="geometry">
            <mxPoint as="offset" />
          </mxGeometry>
        </mxCell>
        <mxCell id="LxgnsTLY_BnMaZnDWCfZ-184" value="&lt;font color=&quot;#ffffff&quot;&gt;3.3&lt;br&gt;&lt;br&gt;Pengelolaan Laporan Pengeluaran &amp;amp; Pemasukan Bahan&lt;br&gt;&lt;/font&gt;" style="shape=ellipse;html=1;dashed=0;whiteSpace=wrap;aspect=fixed;perimeter=ellipsePerimeter;strokeColor=#D0CEE2;fontColor=#1A1A1A;fillColor=#5D7F99;" vertex="1" parent="1">
          <mxGeometry x="119.99999999999999" y="4540" width="135" height="135" as="geometry" />
        </mxCell>
        <mxCell id="LxgnsTLY_BnMaZnDWCfZ-195" style="edgeStyle=orthogonalEdgeStyle;rounded=0;orthogonalLoop=1;jettySize=auto;html=1;entryX=0.5;entryY=1;entryDx=0;entryDy=0;strokeColor=#736CA8;fontColor=#1A1A1A;" edge="1" parent="1" target="LxgnsTLY_BnMaZnDWCfZ-182">
          <mxGeometry relative="1" as="geometry">
            <mxPoint x="440" y="4130" as="sourcePoint" />
          </mxGeometry>
        </mxCell>
        <mxCell id="LxgnsTLY_BnMaZnDWCfZ-196" value="Data_pesanan" style="edgeLabel;html=1;align=center;verticalAlign=middle;resizable=0;points=[];fontColor=#1A1A1A;" vertex="1" connectable="0" parent="LxgnsTLY_BnMaZnDWCfZ-195">
          <mxGeometry x="-0.1022" relative="1" as="geometry">
            <mxPoint as="offset" />
          </mxGeometry>
        </mxCell>
        <mxCell id="LxgnsTLY_BnMaZnDWCfZ-199" style="edgeStyle=orthogonalEdgeStyle;rounded=0;orthogonalLoop=1;jettySize=auto;html=1;entryX=0.5;entryY=0;entryDx=0;entryDy=0;strokeColor=#736CA8;fontColor=#1A1A1A;" edge="1" parent="1" target="LxgnsTLY_BnMaZnDWCfZ-182">
          <mxGeometry relative="1" as="geometry">
            <mxPoint x="690" y="4262.5" as="sourcePoint" />
            <Array as="points">
              <mxPoint x="690" y="3880" />
              <mxPoint x="188" y="3880" />
            </Array>
          </mxGeometry>
        </mxCell>
        <mxCell id="LxgnsTLY_BnMaZnDWCfZ-200" value="Data_persediaan" style="edgeLabel;html=1;align=center;verticalAlign=middle;resizable=0;points=[];fontColor=#1A1A1A;" vertex="1" connectable="0" parent="LxgnsTLY_BnMaZnDWCfZ-199">
          <mxGeometry x="0.0768" y="-1" relative="1" as="geometry">
            <mxPoint y="1" as="offset" />
          </mxGeometry>
        </mxCell>
        <mxCell id="LxgnsTLY_BnMaZnDWCfZ-201" style="edgeStyle=orthogonalEdgeStyle;rounded=0;orthogonalLoop=1;jettySize=auto;html=1;entryX=1;entryY=1;entryDx=0;entryDy=0;strokeColor=#736CA8;fontColor=#1A1A1A;" edge="1" parent="1" target="LxgnsTLY_BnMaZnDWCfZ-184">
          <mxGeometry relative="1" as="geometry">
            <mxPoint x="630" y="4312.5" as="sourcePoint" />
            <Array as="points">
              <mxPoint x="630" y="4655" />
            </Array>
          </mxGeometry>
        </mxCell>
        <mxCell id="LxgnsTLY_BnMaZnDWCfZ-202" value="Data_persediaan" style="edgeLabel;html=1;align=center;verticalAlign=middle;resizable=0;points=[];fontColor=#1A1A1A;" vertex="1" connectable="0" parent="LxgnsTLY_BnMaZnDWCfZ-201">
          <mxGeometry x="0.2045" relative="1" as="geometry">
            <mxPoint as="offset" />
          </mxGeometry>
        </mxCell>
        <mxCell id="LxgnsTLY_BnMaZnDWCfZ-188" value="General Manager" style="html=1;dashed=0;whiteSpace=wrap;strokeColor=#D0CEE2;fontColor=#FFFFFF;fillColor=#5D7F99;" vertex="1" parent="1">
          <mxGeometry x="127.49999999999999" y="4780" width="120" height="50" as="geometry" />
        </mxCell>
        <mxCell id="LxgnsTLY_BnMaZnDWCfZ-218" style="edgeStyle=orthogonalEdgeStyle;rounded=0;orthogonalLoop=1;jettySize=auto;html=1;entryX=1;entryY=0.5;entryDx=0;entryDy=0;strokeColor=#736CA8;fontColor=#1A1A1A;" edge="1" parent="1" source="LxgnsTLY_BnMaZnDWCfZ-209" target="LxgnsTLY_BnMaZnDWCfZ-183">
          <mxGeometry relative="1" as="geometry" />
        </mxCell>
        <mxCell id="LxgnsTLY_BnMaZnDWCfZ-219" value="Data_persediaan" style="edgeLabel;html=1;align=center;verticalAlign=middle;resizable=0;points=[];fontColor=#1A1A1A;" vertex="1" connectable="0" parent="LxgnsTLY_BnMaZnDWCfZ-218">
          <mxGeometry x="-0.158" y="1" relative="1" as="geometry">
            <mxPoint as="offset" />
          </mxGeometry>
        </mxCell>
        <mxCell id="LxgnsTLY_BnMaZnDWCfZ-209" value="Stok" style="html=1;dashed=0;whiteSpace=wrap;shape=partialRectangle;right=0;left=0;" vertex="1" parent="1">
          <mxGeometry x="570" y="4263.75" width="120" height="47.5" as="geometry" />
        </mxCell>
        <mxCell id="LxgnsTLY_BnMaZnDWCfZ-211" value="Pesanan" style="html=1;dashed=0;whiteSpace=wrap;shape=partialRectangle;right=0;left=0;" vertex="1" parent="1">
          <mxGeometry x="440" y="4106" width="120" height="47.5" as="geometry" />
        </mxCell>
        <mxCell id="LxgnsTLY_BnMaZnDWCfZ-213" style="edgeStyle=orthogonalEdgeStyle;rounded=0;orthogonalLoop=1;jettySize=auto;html=1;entryX=1;entryY=0.5;entryDx=0;entryDy=0;strokeColor=#736CA8;fontColor=#1A1A1A;" edge="1" parent="1" source="LxgnsTLY_BnMaZnDWCfZ-212" target="LxgnsTLY_BnMaZnDWCfZ-184">
          <mxGeometry relative="1" as="geometry">
            <Array as="points">
              <mxPoint x="500" y="4608" />
              <mxPoint x="348" y="4608" />
            </Array>
          </mxGeometry>
        </mxCell>
        <mxCell id="LxgnsTLY_BnMaZnDWCfZ-214" value="Data_pembelian" style="edgeLabel;html=1;align=center;verticalAlign=middle;resizable=0;points=[];fontColor=#1A1A1A;" vertex="1" connectable="0" parent="LxgnsTLY_BnMaZnDWCfZ-213">
          <mxGeometry x="0.1737" relative="1" as="geometry">
            <mxPoint as="offset" />
          </mxGeometry>
        </mxCell>
        <mxCell id="LxgnsTLY_BnMaZnDWCfZ-216" style="edgeStyle=orthogonalEdgeStyle;rounded=0;orthogonalLoop=1;jettySize=auto;html=1;entryX=1;entryY=1;entryDx=0;entryDy=0;strokeColor=#736CA8;fontColor=#1A1A1A;" edge="1" parent="1" source="LxgnsTLY_BnMaZnDWCfZ-212" target="LxgnsTLY_BnMaZnDWCfZ-183">
          <mxGeometry relative="1" as="geometry">
            <Array as="points">
              <mxPoint x="500" y="4340" />
              <mxPoint x="235" y="4340" />
            </Array>
          </mxGeometry>
        </mxCell>
        <mxCell id="LxgnsTLY_BnMaZnDWCfZ-217" value="Data_pembelian" style="edgeLabel;html=1;align=center;verticalAlign=middle;resizable=0;points=[];fontColor=#1A1A1A;" vertex="1" connectable="0" parent="LxgnsTLY_BnMaZnDWCfZ-216">
          <mxGeometry x="0.1039" y="-1" relative="1" as="geometry">
            <mxPoint as="offset" />
          </mxGeometry>
        </mxCell>
        <mxCell id="LxgnsTLY_BnMaZnDWCfZ-212" value="Pembelian" style="html=1;dashed=0;whiteSpace=wrap;shape=partialRectangle;right=0;left=0;" vertex="1" parent="1">
          <mxGeometry x="440" y="4440" width="120" height="47.5" as="geometry" />
        </mxCell>
        <mxCell id="LxgnsTLY_BnMaZnDWCfZ-220" value="Pembelian" style="html=1;dashed=0;whiteSpace=wrap;shape=partialRectangle;right=0;left=0;" vertex="1" parent="1">
          <mxGeometry x="650" y="3420" width="110" height="40" as="geometry" />
        </mxCell>
        <mxCell id="LxgnsTLY_BnMaZnDWCfZ-221" value="Stock" style="html=1;dashed=0;whiteSpace=wrap;shape=partialRectangle;right=0;left=0;" vertex="1" parent="1">
          <mxGeometry x="440" y="3420" width="110" height="40" as="geometry" />
        </mxCell>
        <mxCell id="LxgnsTLY_BnMaZnDWCfZ-223" value="Pesanan" style="html=1;dashed=0;whiteSpace=wrap;shape=partialRectangle;right=0;left=0;" vertex="1" parent="1">
          <mxGeometry x="760" y="2049.89" width="100" height="50" as="geometry" />
        </mxCell>
        <mxCell id="LxgnsTLY_BnMaZnDWCfZ-227" value="Menu" style="html=1;dashed=0;whiteSpace=wrap;shape=partialRectangle;right=0;left=0;" vertex="1" parent="1">
          <mxGeometry x="480" y="2199.89" width="100" height="50" as="geometry" />
        </mxCell>
        <mxCell id="LxgnsTLY_BnMaZnDWCfZ-229" value="Paket" style="html=1;dashed=0;whiteSpace=wrap;shape=partialRectangle;right=0;left=0;" vertex="1" parent="1">
          <mxGeometry x="480" y="2489.89" width="120" height="50" as="geometry" />
        </mxCell>
        <mxCell id="LxgnsTLY_BnMaZnDWCfZ-230" value="Bayar" style="html=1;dashed=0;whiteSpace=wrap;shape=partialRectangle;right=0;left=0;" vertex="1" parent="1">
          <mxGeometry x="480" y="2989.89" width="120" height="50" as="geometry" />
        </mxCell>
      </root>
    </mxGraphModel>
  </diagram>
</mxfile>
